# xmcd
#
# Track frame offsets: 
#        150
#        10775
#        20317
#        31647
#        43972
#        56785
#        66400
#        77812
#        87700
#        99175
#        107740
#        119627
#        128337
#        138450
#        148655
#        157084
#        168220
#        178637
#        191985
#        202459
#        215927
#        227612
#        237547
#        249532
#        262077
#        273125
#        284847
#        296805
#        306942
#
# Disc length: 4235 seconds
#
# Revision: 0
# Processed by: cddbd v1.5.1PL0 Copyright (c) Steve Scherf et al.
# Submitted via: ExactAudioCopy v0.95a4
#
DISCID=ca10891d
DTITLE=Various Artist - The 'D' Singles Volume 5 - Disc 3
DYEAR=1900
DGENRE=Country
TTITLE0=Red River Dave - We'll Bury You
TTITLE1=Red River Dave - Moon Over The Wall (In East Berlin)
TTITLE2=Booth Kinner - How I Wish I Was Him
TTITLE3=Booth Kinner - Aisle Of I Do
TTITLE4=Billy Western - My Blue Room
TTITLE5=Billy Western - Say When (You Want Me To Leave)
TTITLE6=Hank Roby - Might As Well Stick With You
TTITLE7=Hank Roby - Wasted Love
TTITLE8=Johnny Nelms - I'm So Ashamed
TTITLE9=Johnny Nelms - The Sulphur Queen
TTITLE10=Johnny Nelms - Blue Tomorrow
TTITLE11=Tex Wayne - Angel With A Ponytail
TTITLE12=Tex Wayne - Standing At The Crossroads
TTITLE13=Booth Kinner - Walking Right Out Of My Mind
TTITLE14=Booth Kinner - I've Got A Feeling
TTITLE15=Betty and Walt Riddle - I've Been Wrong Before
TTITLE16=Betty and Walt Riddle - Don't Back Out Now
TTITLE17=Jack Newman - Daddy's Baby
TTITLE18=Jack Newman - Ship For Lonely Men
TTITLE19=Billy Western - Home's Not Where My House Is
TTITLE20=Billy Western and Jeanne Davis - Love Enough
TTITLE21=Hank Roby - Anna Anna
TTITLE22=Hank Roby - Let's Pretend
TTITLE23=Danny and Audry Harrison - Broken Love Affair
TTITLE24=Danny Harrison - Have I Wasted My Life
TTITLE25=Jimmy Dry - I Know
TTITLE26=Jimmy Dry - Incidentally
TTITLE27=Tex Wayne - She's Lying Again
TTITLE28=Tex Wayne - My Party's Over
EXTD=
EXTT0=
EXTT1=
EXTT2=
EXTT3=
EXTT4=
EXTT5=
EXTT6=
EXTT7=
EXTT8=
EXTT9=
EXTT10=
EXTT11=
EXTT12=
EXTT13=
EXTT14=
EXTT15=
EXTT16=
EXTT17=
EXTT18=
EXTT19=
EXTT20=
EXTT21=
EXTT22=
EXTT23=
EXTT24=
EXTT25=
EXTT26=
EXTT27=
EXTT28=
PLAYORDER=
